<?xml version="1.0" encoding="UTF-8" standalone="no"?>
<!-- Created with Inkscape (http://www.inkscape.org/) -->

<svg
   xmlns:dc="http://purl.org/dc/elements/1.1/"
   xmlns:cc="http://creativecommons.org/ns#"
   xmlns:rdf="http://www.w3.org/1999/02/22-rdf-syntax-ns#"
   xmlns:svg="http://www.w3.org/2000/svg"
   xmlns="http://www.w3.org/2000/svg"
   xmlns:sodipodi="http://sodipodi.sourceforge.net/DTD/sodipodi-0.dtd"
   xmlns:inkscape="http://www.inkscape.org/namespaces/inkscape"
   width="240mm"
   height="120mm"
   viewBox="0 0 240 120"
   version="1.1"
   id="svg8"
   inkscape:version="0.92.4 5da689c313, 2019-01-14"
   sodipodi:docname="figure.svg">
  <defs
     id="defs2" />
  <sodipodi:namedview
     id="base"
     pagecolor="#ffffff"
     bordercolor="#666666"
     borderopacity="1.0"
     inkscape:pageopacity="0.0"
     inkscape:pageshadow="2"
     inkscape:zoom="0.99437388"
     inkscape:cx="286.28759"
     inkscape:cy="182.72055"
     inkscape:document-units="mm"
     inkscape:current-layer="layer1"
     showgrid="false"
     showborder="true"
     width="200mm"
     showguides="true"
     inkscape:guide-bbox="true"
     inkscape:window-width="716"
     inkscape:window-height="1399"
     inkscape:window-x="721"
     inkscape:window-y="34"
     inkscape:window-maximized="0">
    <inkscape:grid
       type="xygrid"
       id="grid815"
       units="mm"
       spacingx="10"
       spacingy="10"
       empspacing="4"
       dotted="false" />
  </sodipodi:namedview>
  <metadata
     id="metadata5">
    <rdf:RDF>
      <cc:Work
         rdf:about="">
        <dc:format>image/svg+xml</dc:format>
        <dc:type
           rdf:resource="http://purl.org/dc/dcmitype/StillImage" />
        <dc:title />
      </cc:Work>
    </rdf:RDF>
  </metadata>
  <g
     inkscape:label="Layer 1"
     inkscape:groupmode="layer"
     id="layer1"
     transform="translate(0,-177)">
    <path
       style="fill:none;stroke:#000000;stroke-width:0.26499999;stroke-linecap:square;stroke-miterlimit:4;stroke-dasharray:none"
       id="path8"
       d="m 30.309325,261.64027 c 3.171153,-0.77528 6.372159,-1.41301 9.57743,-2.03148 5.657468,-1.03955 11.302954,-2.13621 16.917984,-3.38552 2.240222,-0.52809 4.500179,-1.01578 6.669479,-1.79986 0.632394,-0.22857 1.324158,-0.5408 1.943092,-0.81056 0.281983,-0.157 1.131105,-0.62217 0.84595,-0.471 -0.773925,0.41026 -1.462966,1.0344 -2.312376,1.24837 -0.480092,0.12093 0.774215,-0.6185 1.13933,-0.95288 1.450811,-1.32867 2.737646,-2.8375 4.052623,-4.29614 3.188814,-3.39576 6.332765,-6.82851 9.37142,-10.3595 2.106183,-2.43484 4.136606,-4.99297 5.369237,-7.99949 0.294272,-0.71777 0.514741,-1.46363 0.772112,-2.19544 1.038164,-3.8497 1.584275,-7.84888 1.458995,-11.84045 -0.01643,-0.52361 -0.06889,-1.04548 -0.103336,-1.56822 -0.188362,-1.29288 -0.385789,-2.74908 -1.329071,-3.74893 -0.54782,-0.58068 -0.890744,-0.66733 -1.614075,-1.03415 -3.698943,-1.40882 -7.690323,-1.78212 -11.602415,-2.1367 -3.931386,-0.27031 -7.891719,-0.22823 -11.805309,0.26112 -2.61752,0.32729 -3.573423,0.57324 -6.141307,1.09753 -3.492516,0.77862 -6.924,1.89618 -10.106848,3.54898 -0.720624,0.37421 -1.448456,0.74484 -2.115113,1.20841 -0.324771,0.22584 0.72074,-0.32626 1.081111,-0.4894 -2.650159,1.87482 -5.09578,4.03876 -7.138633,6.56495 -0.454578,0.72366 -1.400712,1.70875 -1.099431,2.67318 0.05469,0.17506 0.167579,0.3263 0.251367,0.48945 0.164635,0.22621 0.317183,0.46173 0.493906,0.67863 2.090026,2.56512 4.70649,4.74514 7.20924,6.88446 5.203015,4.40268 11.05363,7.92884 16.916722,11.36482 4.714716,2.64848 9.480913,5.22861 14.437535,7.4016 0.910907,0.39935 1.835266,0.76729 2.752899,1.15093 6.355572,2.52637 13.025789,4.12471 19.622146,5.87871 8.467951,2.17883 17.024291,3.98745 25.633551,5.50608 5.23698,0.91225 10.52614,1.46518 15.79791,2.12923 2.49108,0.26917 4.96257,0.78593 7.32317,1.63617 1.53245,0.55196 2.1918,0.90026 3.66964,1.58903 3.78379,1.98361 7.4919,4.10697 11.14909,6.31419 1.3162,0.90729 2.86467,1.58355 3.94558,2.79555 0.0449,0.0748 0.0898,0.14957 0.13469,0.22435 0,0 -3.42055,1.96866 -3.42055,1.96866 v 0 c -0.0283,-0.0561 -0.0567,-0.11223 -0.085,-0.16836 -0.94964,-1.22411 -2.42072,-1.93572 -3.63529,-2.84719 -3.57854,-2.30077 -7.27932,-4.39774 -11.08422,-6.30264 -1.53202,-0.69954 -2.07018,-0.98966 -3.65975,-1.53973 -2.35265,-0.81412 -4.8067,-1.29983 -7.27439,-1.59456 -5.18082,-0.71709 -10.37362,-1.37379 -15.51417,-2.34958 -8.57403,-1.63445 -17.09947,-3.51249 -25.582163,-5.56906 -6.685235,-1.66059 -13.443082,-3.20035 -19.84779,-5.78389 -0.917366,-0.38875 -1.842442,-0.75979 -2.752098,-1.16624 -4.934188,-2.20473 -9.679043,-4.81417 -14.373743,-7.48194 -5.886934,-3.46671 -11.757734,-7.01345 -17.070816,-11.33258 -1.88918,-1.54421 -3.767344,-3.08821 -5.553255,-4.75234 -0.492516,-0.45893 -1.524114,-1.44862 -2.020472,-2.00348 -0.201358,-0.2251 -0.378629,-0.47063 -0.567944,-0.70594 -0.112617,-0.20005 -0.256765,-0.38538 -0.337846,-0.60016 -0.414343,-1.09754 0.498152,-2.17704 1.069062,-3.00678 2.108353,-2.58673 4.608557,-4.81577 7.317713,-6.76123 1.137254,-0.6905 5.148824,-3.21271 7.066989,-4.18158 3.175937,-1.60418 6.591909,-2.67024 10.063253,-3.41217 2.545712,-0.50061 3.556719,-0.74706 6.152213,-1.06201 3.958995,-0.48041 7.96526,-0.52449 11.942291,-0.28302 4.010621,0.35201 8.107529,0.68764 11.912246,2.09456 0.796417,0.41466 1.160055,0.50492 1.754677,1.16406 0.976272,1.08219 1.153641,2.62804 1.30112,4.00501 0.137964,4.57334 -0.324316,9.14538 -1.425813,13.59206 -0.233987,0.7362 -0.42604,1.48706 -0.701964,2.20858 -1.170905,3.06187 -3.209951,5.66366 -5.352044,8.09908 -3.057057,3.51177 -6.187842,6.95449 -9.361027,10.3616 -0.506836,0.57011 -2.158672,2.43486 -2.703597,3.02238 -0.319556,0.34454 -1.785155,1.90892 -2.27344,2.23457 -2.629517,1.75368 -3.077597,1.95773 -5.022562,2.95396 -2.733948,1.12865 -5.516991,1.78952 -8.41539,2.37111 -5.625174,1.1889 -11.272946,2.26065 -16.913302,3.37424 -3.323735,0.67819 -6.653223,1.35897 -9.90379,2.34051 0,0 3.104557,-2.41192 3.104557,-2.41192 z"
       inkscape:connector-curvature="0" />
  </g>
</svg>
